<?xml version="1.0" encoding="UTF-8"?>
<!DOCTYPE svg PUBLIC "-//W3C//DTD SVG 1.1//EN" "http://www.w3.org/Graphics/SVG/1.1/DTD/svg11.dtd">
<svg xmlns="http://www.w3.org/2000/svg" version="1.1" width="512px" height="512px" style="shape-rendering:geometricPrecision; text-rendering:geometricPrecision; image-rendering:optimizeQuality; fill-rule:evenodd; clip-rule:evenodd" xmlns:xlink="http://www.w3.org/1999/xlink">
<g><path style="opacity:0.994" fill="#000000" d="M 48.5,1.5 C 186.834,1.33333 325.167,1.5 463.5,2C 490.024,5.85779 505.191,21.0245 509,47.5C 509.667,186.167 509.667,324.833 509,463.5C 505.191,489.976 490.024,505.142 463.5,509C 325.167,509.667 186.833,509.667 48.5,509C 23.8453,505.586 8.67861,491.753 3,467.5C 2.33333,326.167 2.33333,184.833 3,43.5C 8.91778,19.3189 24.0844,5.3189 48.5,1.5 Z"/></g>
<g><path style="opacity:1" fill="#fafafa" d="M 121.5,160.5 C 167.435,180.425 213.435,200.258 259.5,220C 260.814,227.775 260.814,235.608 259.5,243.5C 213.628,263.565 167.628,283.232 121.5,302.5C 121.187,295.245 121.52,288.079 122.5,281C 160.833,264.667 199.167,248.333 237.5,232C 199.406,215.022 161.073,198.522 122.5,182.5C 121.503,175.197 121.169,167.863 121.5,160.5 Z"/></g>
<g><path style="opacity:1" fill="#7d7d7d" d="M 400.5,348.5 C 400.5,344.167 400.5,339.833 400.5,335.5C 357.5,335.5 314.5,335.5 271.5,335.5C 271.5,339.833 271.5,344.167 271.5,348.5C 270.514,344.03 270.181,339.363 270.5,334.5C 314.167,334.5 357.833,334.5 401.5,334.5C 401.819,339.363 401.486,344.03 400.5,348.5 Z"/></g>
<g><path style="opacity:1" fill="#fdfdfd" d="M 400.5,348.5 C 357.5,348.5 314.5,348.5 271.5,348.5C 271.5,344.167 271.5,339.833 271.5,335.5C 314.5,335.5 357.5,335.5 400.5,335.5C 400.5,339.833 400.5,344.167 400.5,348.5 Z"/></g>
</svg>
